<?xml version="1.0" encoding="iso-8859-1"?>
<!-- Generator: Adobe Illustrator 18.0.0, SVG Export Plug-In . SVG Version: 6.00 Build 0)  -->
<!DOCTYPE svg PUBLIC "-//W3C//DTD SVG 1.1//EN" "http://www.w3.org/Graphics/SVG/1.1/DTD/svg11.dtd">
<svg version="1.1" id="Capa_1" xmlns="http://www.w3.org/2000/svg" xmlns:xlink="http://www.w3.org/1999/xlink" x="0px" y="0px"
	 viewBox="0 0 297 297" style="enable-background:new 0 0 297 297;" xml:space="preserve">
<g>
	<path d="M148.738,95.203h-0.476c-5.302,0-9.615,4.313-9.615,9.615v173.783c0,5.302,4.313,9.615,9.615,9.615h0.476
		c5.302,0,9.615-4.313,9.615-9.615V104.818C158.353,99.516,154.04,95.203,148.738,95.203z"/>
	<path d="M127.424,32.691c-0.807-2.419-2.541-4.419-4.822-5.56L87.94,9.801c-4.75-2.379-10.524-0.451-12.899,4.3
		c-2.375,4.749-0.45,10.525,4.3,12.899l31.099,15.549l16.071,49.691c3.502-5.854,10.02-10.135,16.923-11.516L127.424,32.691z"/>
	<path d="M217.659,27.001c4.75-2.375,6.675-8.15,4.3-12.899c-2.376-4.75-8.154-6.68-12.9-4.3l-34.662,17.33
		c-2.282,1.14-4.016,3.14-4.822,5.56l-16.01,48.034c6.903,1.381,13.421,5.662,16.923,11.516l16.071-49.691L217.659,27.001z"/>
	<path d="M61.845,112.534c-5.432,0-9.852,4.42-9.852,9.853s4.419,9.852,9.852,9.852s9.853-4.419,9.853-9.852
		S67.278,112.534,61.845,112.534z"/>
	<path d="M61.845,60.543C27.744,60.543,0,88.286,0,122.388s27.744,61.845,61.845,61.845c4.13,0,7.478,3.348,7.478,7.478v2.97
		c0,3.17-1.998,5.995-4.986,7.051c-17.75,6.275-29.676,23.143-29.676,41.972c0,24.545,19.969,44.514,44.515,44.514
		c24.545,0,44.514-19.969,44.514-44.514V122.388C123.69,88.286,95.947,60.543,61.845,60.543z M84.46,248.99
		c-1.389,1.389-3.312,2.19-5.288,2.19c-1.966,0-3.888-0.801-5.288-2.19c-1.39-1.389-2.191-3.322-2.191-5.288
		c0-1.966,0.801-3.888,2.191-5.287c1.389-1.39,3.322-2.191,5.288-2.191c1.977,0,3.9,0.801,5.288,2.191
		c1.4,1.389,2.19,3.322,2.19,5.287C86.65,245.678,85.86,247.601,84.46,248.99z M61.845,147.195
		c-13.68,0-24.809-11.129-24.809-24.809s11.129-24.81,24.809-24.81s24.81,11.13,24.81,24.81S75.525,147.195,61.845,147.195z"/>
	<path d="M245.007,122.387c0-5.433-4.419-9.853-9.852-9.853c-5.433,0-9.853,4.42-9.853,9.853s4.421,9.852,9.853,9.852
		C240.587,132.238,245.007,127.819,245.007,122.387z"/>
	<path d="M235.155,184.233c34.102,0,61.845-27.744,61.845-61.845s-27.744-61.845-61.845-61.845s-61.845,27.743-61.845,61.845
		v121.317c0,24.545,19.969,44.514,44.514,44.514c24.546,0,44.515-19.969,44.515-44.514c0-18.83-11.926-35.697-29.676-41.972
		c-2.988-1.056-4.986-3.881-4.986-7.051v-2.97C227.676,187.581,231.025,184.233,235.155,184.233z M223.11,248.99
		c-1.389,1.389-3.323,2.19-5.288,2.19c-1.966,0-3.888-0.801-5.288-2.19c-1.389-1.389-2.19-3.322-2.19-5.288
		c0-1.966,0.801-3.888,2.19-5.287c1.389-1.39,3.323-2.191,5.288-2.191c1.966,0,3.9,0.801,5.288,2.191
		c1.399,1.399,2.19,3.322,2.19,5.287C225.3,245.668,224.509,247.601,223.11,248.99z M210.345,122.387
		c0-13.68,11.13-24.81,24.81-24.81c13.68,0,24.809,11.13,24.809,24.81s-11.129,24.809-24.809,24.809
		C221.475,147.195,210.345,136.066,210.345,122.387z"/>
</g>
<g>
</g>
<g>
</g>
<g>
</g>
<g>
</g>
<g>
</g>
<g>
</g>
<g>
</g>
<g>
</g>
<g>
</g>
<g>
</g>
<g>
</g>
<g>
</g>
<g>
</g>
<g>
</g>
<g>
</g>
</svg>
